<svg width="29" height="29" viewBox="0 0 29 29" fill="none" xmlns="http://www.w3.org/2000/svg">
<path d="M1.5358 0.262292C1.17577 -0.0962388 0.602048 -0.0859223 0.25436 0.285335C-0.0933284 0.656592 -0.0833238 1.2482 0.276706 1.60673L13.1968 14.4731L0.275347 27.3946C-0.0839565 27.7539 -0.0927639 28.3456 0.255675 28.7161C0.604114 29.0866 1.17785 29.0957 1.53715 28.7364L14.5 15.7735L27.4628 28.7364C27.8221 29.0957 28.3959 29.0866 28.7443 28.7161C29.0928 28.3456 29.084 27.7539 28.7247 27.3946L15.8032 14.4731L28.7233 1.60673C29.0833 1.2482 29.0933 0.656592 28.7456 0.285335C28.398 -0.0859223 27.8242 -0.0962388 27.4642 0.262292L14.5 13.1725L1.5358 0.262292Z" fill="white"/>
</svg>
